# xmcd
#
# Track frame offsets: 
#        150
#        12767
#        23835
#        35378
#        45067
#        58478
#        72634
#        85425
#        95235
#        103998
#        119721
#        131510
#        146913
#        156078
#        165795
#        179961
#        192291
#
# Disc length: 2725 seconds
#
# Revision: 0
# Processed by: cddbd v1.5.1PL2 Copyright (c) Steve Scherf et al.
# Submitted via: ExactAudioCopy v0.95b2
#
DISCID=fa0aa311
DTITLE=Various Artist - Country-Back In The 4 of 4
DYEAR=2006
DGENRE=
TTITLE0=Reuben James - Kenny Rogers and The First Edition 
TTITLE1=It Wasn't God Who Made Honky Tonk Angels - Dolly Parton 
TTITLE2=I'm Going To Lose A Lot Of Teardrops - Willie Nelson 
TTITLE3=Release Me (Live) - Barbara Mandrell 
TTITLE4=Almost Persuaded - David Houston 
TTITLE5=I'm The Only Hell My Momma Ever Raised - Johnny Paycheck
TTITLE6=Top Of The World - Lynn Anderson 
TTITLE7=From A Jack To A King - Ned Miller 
TTITLE8=Love's Gonna Live Here - Waylon Jennings 
TTITLE9=A Jukebox And A Country Song - Doug Stone 
TTITLE10=The Happiest Girl In The Whole U.S.A. - Donna Fargo 
TTITLE11=For The Good Times - Kenny Rogers and The First Edition 
TTITLE12=I'll Repossess My Heart - Kitty Wells 
TTITLE13=Truck Drivin' Son Of A Gun - Ferlin Husky 
TTITLE14=Don't Fence Me In - Frankie Laine 
TTITLE15=Stand By Your Man - Lynn Anderson 
TTITLE16=Before The Next Teardrop Falls (Live) - Freddy Fender 
EXTD=
EXTT0=
EXTT1=
EXTT2=
EXTT3=
EXTT4=
EXTT5=
EXTT6=
EXTT7=
EXTT8=
EXTT9=
EXTT10=
EXTT11=
EXTT12=
EXTT13=
EXTT14=
EXTT15=
EXTT16=
PLAYORDER=
